# xmcd
#
# Track frame offsets: 
#        150
#        19394
#        37156
#        58866
#        77949
#        99084
#        110779
#        117360
#        140238
#        151018
#        169178
#        188130
#        199817
#        220444
#        239929
#        258058
#        265029
#        281606
#
# Disc length: 3881 seconds
#
# Revision: 0
# Processed by: cddbd v1.5.2PL0 Copyright (c) Steve Scherf et al.
# Submitted via: ExactAudioCopy v0.99pb4
#
DISCID=140f2712
DTITLE=Big Pokey - On Another Note
DYEAR=2008
DGENRE=Texas Rap
TTITLE0=Taking Over (Feat. Ginny B)
TTITLE1=Come See Tha World (Feat. E.S.G., Big Shasta, Ginny B)
TTITLE2=Dreaming (Feat. Ginny B)
TTITLE3=Danger (Feat. Yungstar, Ginny B)
TTITLE4=Holdin (Feat. Big Moe)
TTITLE5=How You Like Me Now (Feat. Ginny B)
TTITLE6=15's Studda
TTITLE7=64 Flow (Feat. Yungstar, Ginny B)
TTITLE8=You Make Me Better (Feat. Ginny B)
TTITLE9=On Our Grind
TTITLE10=Ride (Feat. 50/50 Twin, Ginny B
TTITLE11=Money Mission (Feat. Hawk, Ankaman, Ginny B)
TTITLE12=Swervin (Feat. Lil KeKe, Hawk)
TTITLE13=Wood Grain Flow (Feat. E.S.G.)
TTITLE14=84's (Feat. Lil KeKe)
TTITLE15=Real Talk (Feat. DJ Sedd)
TTITLE16=Classic Flow
TTITLE17=Straight Freestyle (Feat. Lil Flip, Big Shasta)
EXTD=
EXTT0=
EXTT1=
EXTT2=
EXTT3=
EXTT4=
EXTT5=
EXTT6=
EXTT7=
EXTT8=
EXTT9=
EXTT10=
EXTT11=
EXTT12=
EXTT13=
EXTT14=
EXTT15=
EXTT16=
EXTT17=
PLAYORDER=
